<?xml version="1.0" encoding="utf-8"?>
<!-- Generator: Adobe Illustrator 19.2.1, SVG Export Plug-In . SVG Version: 6.00 Build 0)  -->
<svg version="1.1" xmlns="http://www.w3.org/2000/svg" xmlns:xlink="http://www.w3.org/1999/xlink" x="0px" y="0px"
	 viewBox="0 0 192 192" style="enable-background:new 0 0 192 192;" xml:space="preserve">
<style type="text/css">
	.st0{fill:#5EC2D7;}
	.st1{fill:#3EBCD3;}
	.st2{fill:#89CFDF;}
	.st3{fill:#FFFFFF;}
</style>
<g id="Background">
	<path class="st0" d="M172,59.9V160c0,6.6-5.4,12-12,12H32c-6.6,0-12-5.4-12-12V32c0-6.6,5.4-12,12-12h100.1l19.8,19.8L172,59.9z"/>
</g>
<g id="onglet">
	<polygon id="shade" class="st1" points="172,59.9 172,94.7 134.5,57.2 151.8,39.8 	"/>
	<path id="shape" class="st2" d="M172,59.9h-31.2c-4.8,0-8.8-3.9-8.8-8.8V20L172,59.9z"/>
</g>
<g id="shade_1_">
	<path class="st1" d="M172,114.2V160c0,6.6-5.4,12-12,12H90.5l-26.8-26.8l29.5-29.5l-12.9-12.9l9.5-9.5L87.4,91L86,91.9l-3.2-3.4
		l-2.3-2.5l-2.5-2.6l8.9-7.8l4.9-4.3L81.2,60.6l23.1-5.5l4.3-4.3L172,114.2z"/>
</g>
<g id="Logo">
	<path class="st3" d="M130.5,130.8v14.5h-69v-14.5c0-11.6,8.3-19.7,17.4-24.3c4.1,3.6,9.4,6,15.1,6.6l-1.6,15.5
		c-0.1,1.3,0.4,2.5,1.3,3.5l2.8,2.7l2.9-2.7c1.1-1,1.6-2.3,1.4-3.6l-1.8-15.4c5.6-0.5,10.7-2.7,14.8-6.1
		C122.7,111.7,130.5,119.6,130.5,130.8z"/>
	<path class="st3" d="M102.3,97.9c-0.8,0.4-1.6,0.7-2.4,1c-2.5,0.7-5.1,0.7-7.7-0.1c-1.8-0.6-3.3-1.5-4.6-2.6l31.4-16.3l-2.3-4.4
		c-2.9-5.6-7.9-9.6-13.5-11.4l0,0c-4.3-1.4-8.8-1.4-13.1-0.2c0,0-0.1,0-0.1,0c-0.6,0.2-1.2,0.4-1.8,0.6c-0.1,0.1-0.3,0.1-0.4,0.2
		c-0.6,0.3-1.3,0.5-1.9,0.9c-0.1,0-0.2,0.1-0.2,0.1c-2.1,1.1-3.9,2.4-5.5,4c-2.7,2.6-4.7,5.9-5.9,9.5c0,0.1-0.1,0.3-0.1,0.4
		c-0.2,0.6-0.4,1.2-0.5,1.9c0,0.1,0,0.3-0.1,0.4c-0.1,0.6-0.2,1.2-0.3,1.9c0,0,0,0.1,0,0.1c-0.5,4.4,0.4,8.9,2.5,12.9
		c2.1,4.1,5.3,7.3,9.2,9.5c0,0,0,0,0,0c0.6,0.3,1.2,0.6,1.8,0.9c0.1,0,0.2,0.1,0.3,0.1c0.7,0.3,1.4,0.6,2.2,0.8
		c2.3,0.7,4.6,1.1,7,1.1c3.6,0,7.3-0.9,10.6-2.6l0,0c0,0,0,0,0,0c5.5-2.8,9.5-7.6,11.4-13.5l-9.4-3
		C107.7,93.5,105.4,96.3,102.3,97.9z M104.8,76.2L83,87.5c-0.2-1.7,0-3.5,0.6-5.3c1.1-3.4,3.4-6.1,6.5-7.7c0,0,0,0,0,0
		c0.4-0.2,0.9-0.4,1.3-0.6c0.1-0.1,0.3-0.1,0.5-0.2c0.3-0.1,0.6-0.2,0.9-0.3c0.2,0,0.4-0.1,0.5-0.1c0.3-0.1,0.6-0.1,0.9-0.2
		c0.2,0,0.3-0.1,0.5-0.1c0.3,0,0.7-0.1,1-0.1c0.1,0,0.3,0,0.4,0c0.1,0,0.2,0,0.3,0c0.3,0,0.6,0,0.9,0.1c0.1,0,0.2,0,0.4,0
		c0.3,0,0.6,0.1,0.8,0.1c0.1,0,0.2,0,0.3,0.1c0.4,0.1,0.8,0.2,1.2,0.3C101.9,74.1,103.5,75,104.8,76.2z"/>
	<path class="st3" d="M81,59.4c0,0,0.4-0.1,1.2-0.4c0.7-0.3,1.8-0.6,3-1.1c2.5-1,5.8-2.4,9-4c1.6-0.8,3.1-1.6,4.5-2.4
		c0.7-0.4,1.4-0.8,2-1.2c0.6-0.4,1.2-0.8,1.7-1.1c0.5-0.4,1-0.7,1.3-1c0.3-0.3,0.7-0.5,0.9-0.8c0.4-0.4,0.7-0.7,0.7-0.7l5.8,8.3
		c0,0-0.5,0.2-1.4,0.7c-0.4,0.2-1,0.4-1.6,0.6c-0.6,0.2-1.3,0.5-2,0.7c-2.9,0.9-6.6,1.7-10.3,2.3c-3.7,0.6-7.4,0.9-10.1,1.1
		c-1.4,0.1-2.5,0.1-3.3,0.2c-0.8,0-1.2,0-1.2,0L81,59.4z"/>
</g>
</svg>
