<svg id="Typo" xmlns="http://www.w3.org/2000/svg" viewBox="0 0 441.87 110.75"><defs><style>.cls-1{fill:#fff;}</style></defs><title>typo</title><g id="é"><path class="cls-1" d="M333.52,131.3a23.69,23.69,0,0,1-4.3,1.72,23.44,23.44,0,0,1-21.8-4.78L363,99.4l-4-7.73a40.73,40.73,0,0,0-23.93-20.12v0a40.58,40.58,0,0,0-23.23-.42l-0.26.06c-1,.3-2.08.67-3.11,1.05-0.26.1-.53,0.17-0.79,0.27-1.12.45-2.23,1-3.32,1.52l-0.44.2a40.61,40.61,0,0,0-20.13,23.93c-0.07.23-.11,0.45-0.18,0.68-0.33,1.1-.64,2.21-0.87,3.32-0.05.25-.07,0.5-0.12,0.75-0.21,1.11-.4,2.21-0.52,3.33,0,0.06,0,.12,0,0.19a40.86,40.86,0,0,0,20.65,39.7l0.08,0c1,0.57,2.08,1.08,3.16,1.56,0.18,0.08.35,0.18,0.54,0.26,1.26,0.54,2.56,1,3.88,1.45a40.6,40.6,0,0,0,31.16-2.68h0a40.59,40.59,0,0,0,20.13-23.93l-16.61-5.26A23.28,23.28,0,0,1,333.52,131.3ZM338,92.73l-38.64,20.05a23.41,23.41,0,0,1,12.53-23.1l0.07,0a23.83,23.83,0,0,1,2.3-1c0.27-.1.54-0.18,0.8-0.28,0.55-.19,1.11-0.37,1.67-0.52l0.93-.22c0.54-.12,1.09-0.22,1.63-0.3l0.93-.13c0.61-.06,1.22-0.09,1.84-0.11,0.26,0,.51,0,0.77,0l0.46,0c0.55,0,1.09,0,1.64.1l0.66,0.08c0.5,0.06,1,.15,1.5.24l0.61,0.12c0.69,0.15,1.37.33,2.06,0.54A23.37,23.37,0,0,1,338,92.73Z" transform="translate(-200.72 -40.63)"/><path class="cls-1" d="M295.8,63.07l2.1-.71c1.31-.46,3.16-1.14,5.39-2,4.44-1.75,10.29-4.23,15.9-7,2.81-1.38,5.54-2.86,8-4.29,1.23-.73,2.41-1.44,3.49-2.12s2.1-1.34,2.95-2,1.68-1.2,2.3-1.74,1.24-1,1.59-1.37l1.22-1.18,10.31,14.72-2.45,1.18c-0.79.4-1.69,0.7-2.75,1.14s-2.22.8-3.5,1.22a121.4,121.4,0,0,1-18.19,4c-6.53,1-13,1.62-17.9,1.95-2.43.16-4.48,0.24-5.9,0.29l-2.21,0Z" transform="translate(-200.72 -40.63)"/></g><path class="cls-1" d="M240.65,98.59l17.64-29h22l-27.91,40.54,29.52,41.21h-22.8l-18.15-29.48-18.15,29.48h-22l28.62-41.21L201.43,69.62h21.84Z" transform="translate(-200.72 -40.63)"/><path class="cls-1" d="M472.46,151.37H454.78V69.63h17.68v81.75Z" transform="translate(-200.72 -40.63)"/><path class="cls-1" d="M536.83,133.74H506.88l-6.22,17.63H481.32l31.15-81.75h19l31,81.75H543.11Zm-25.38-12.86h20.87l-10.21-28.8h-0.38Z" transform="translate(-200.72 -40.63)"/><path class="cls-1" d="M642.59,151.37H624.91L589.36,96.24,589,96.3v55.08H571.32V69.63H589l35.55,55.08,0.36-.06v-55h17.68v81.75Z" transform="translate(-200.72 -40.63)"/><polygon class="cls-1" points="245.19 29 245.19 41.76 213.28 41.76 213.28 110.75 195.6 110.75 195.6 41.76 164.05 41.76 164.05 29 245.19 29"/></svg>