<?xml version="1.0" encoding="utf-8"?>
<!-- Generator: Adobe Illustrator 19.2.1, SVG Export Plug-In . SVG Version: 6.00 Build 0)  -->
<svg version="1.1" id="Calque_1" xmlns="http://www.w3.org/2000/svg" xmlns:xlink="http://www.w3.org/1999/xlink" x="0px" y="0px"
	 viewBox="0 0 60 60" style="enable-background:new 0 0 60 60;" xml:space="preserve">
<style type="text/css">
	.st0{fill:#09838F;}
	.st1{fill:#3EBBD1;}
	.st2{fill:#88CEDE;}
	.st3{clip-path:url(#SVGID_4_);}
	.st4{fill:#FF5500;}
	.st5{fill:#EF4900;}
</style>
<g>
	<g>
		<circle class="st0" cx="30" cy="30" r="28.8"/>
		<path class="st1" d="M30,60C13.5,60,0,46.5,0,30S13.5,0,30,0s30,13.5,30,30S46.5,60,30,60z M30,2.4C14.8,2.4,2.4,14.8,2.4,30
			c0,15.2,12.4,27.6,27.6,27.6c15.2,0,27.6-12.4,27.6-27.6C57.6,14.8,45.2,2.4,30,2.4z"/>
	</g>
	<g>
		<polygon class="st2" points="30,21 30.8,3.1 30.6,21 32.5,3.2 31.1,21.1 34.2,3.4 31.7,21.2 35.9,3.7 32.2,21.3 37.5,4.1
			32.8,21.5 39.1,4.7 33.3,21.7 40.7,5.3 33.8,21.9 42.2,6 34.3,22.1 43.7,6.8 34.8,22.4 45.1,7.7 35.3,22.7 46.5,8.7 35.7,23.1
			47.8,9.8 36.1,23.5 49,11 36.5,23.9 50.2,12.2 36.9,24.3 51.3,13.5 37.3,24.7 52.3,14.9 37.6,25.2 53.2,16.3 37.9,25.7 54,17.8
			38.1,26.2 54.7,19.3 38.3,26.7 55.3,20.9 38.5,27.2 55.9,22.5 38.7,27.8 56.3,24.1 38.8,28.3 56.6,25.8 38.9,28.9 56.8,27.5
			39,29.4 56.9,29.2 39,30 56.9,30.8 39,30.6 56.8,32.5 38.9,31.1 56.6,34.2 38.8,31.7 56.3,35.9 38.7,32.2 55.9,37.5 38.5,32.8
			55.3,39.1 38.3,33.3 54.7,40.7 38.1,33.8 54,42.2 37.9,34.3 53.2,43.7 37.6,34.8 52.3,45.1 37.3,35.3 51.3,46.5 36.9,35.7
			50.2,47.8 36.5,36.1 49,49 36.1,36.5 47.8,50.2 35.7,36.9 46.5,51.3 35.3,37.3 45.1,52.3 34.8,37.6 43.7,53.2 34.3,37.9 42.2,54
			33.8,38.1 40.7,54.7 33.3,38.3 39.1,55.3 32.8,38.5 37.5,55.9 32.2,38.7 35.9,56.3 31.7,38.8 34.2,56.6 31.1,38.9 32.5,56.8
			30.6,39 30.8,56.9 30,39 29.2,56.9 29.4,39 27.5,56.8 28.9,38.9 25.8,56.6 28.3,38.8 24.1,56.3 27.8,38.7 22.5,55.9 27.2,38.5
			20.9,55.3 26.7,38.3 19.3,54.7 26.2,38.1 17.8,54 25.7,37.9 16.3,53.2 25.2,37.6 14.9,52.3 24.7,37.3 13.5,51.3 24.3,36.9
			12.2,50.2 23.9,36.5 11,49 23.5,36.1 9.8,47.8 23.1,35.7 8.7,46.5 22.7,35.3 7.7,45.1 22.4,34.8 6.8,43.7 22.1,34.3 6,42.2
			21.9,33.8 5.3,40.7 21.7,33.3 4.7,39.1 21.5,32.8 4.1,37.5 21.3,32.2 3.7,35.9 21.2,31.7 3.4,34.2 21.1,31.1 3.2,32.5 21,30.6
			3.1,30.8 21,30 3.1,29.2 21,29.4 3.2,27.5 21.1,28.9 3.4,25.8 21.2,28.3 3.7,24.1 21.3,27.8 4.1,22.5 21.5,27.2 4.7,20.9
			21.7,26.7 5.3,19.3 21.9,26.2 6,17.8 22.1,25.7 6.8,16.3 22.4,25.2 7.7,14.9 22.7,24.7 8.7,13.5 23.1,24.3 9.8,12.2 23.5,23.9
			11,11 23.9,23.5 12.2,9.8 24.3,23.1 13.5,8.7 24.7,22.7 14.9,7.7 25.2,22.4 16.3,6.8 25.7,22.1 17.8,6 26.2,21.9 19.3,5.3
			26.7,21.7 20.9,4.7 27.2,21.5 22.5,4.1 27.8,21.3 24.1,3.7 28.3,21.2 25.8,3.4 28.9,21.1 27.5,3.2 29.4,21 29.2,3.1 		"/>
	</g>
	<g>
		<g>
			<defs>
				<path id="SVGID_1_" d="M39.7,17.9c0.1-2.1,0-3.6,0-3.6H20.3c0,0-0.1,1.4,0,3.6h-6v0.8c0,10.7,8.2,14.1,11.5,15c0,0,0.1,0,0.1,0
					v0c0,1.6,0.4,4.9,2.9,5.7c-0.4,1.9-1.2,4.1-3.1,5.2c0,0.9,0,0.9,0,0.9h8.7c0,0,0,0,0-0.9c-1.9-1.1-2.7-3.3-3.1-5.2
					c2.4-0.9,2.8-4.2,2.8-5.7c0,0,0,0,0,0c0,0,0,0,0.1,0c0,0,0,0,0,0c3.3-0.9,11.5-4.4,11.5-15.1v-0.8H39.7z M15.9,19.5h4.5
					c0.2,3.6,0.9,8.4,3.1,11.7C20.2,29.7,16.2,26.3,15.9,19.5z M36.6,31.2c2.1-3.3,2.8-8.1,3-11.7h4.5
					C43.8,26.3,39.8,29.6,36.6,31.2z"/>
			</defs>
			<clipPath id="SVGID_2_">
				<use xlink:href="#SVGID_1_"  style="overflow:visible;"/>
			</clipPath>
		</g>
		<g>
			<defs>
				<path id="SVGID_3_" d="M39.7,17.9c0.1-2.1,0-3.6,0-3.6H20.3c0,0-0.1,1.4,0,3.6h-6v0.8c0,10.7,8.2,14.1,11.5,15c0,0,0.1,0,0.1,0
					v0c0,1.6,0.4,4.9,2.9,5.7c-0.4,1.9-1.2,4.1-3.1,5.2c0,0.9,0,0.9,0,0.9h8.7c0,0,0,0,0-0.9c-1.9-1.1-2.7-3.3-3.1-5.2
					c2.4-0.9,2.8-4.2,2.8-5.7c0,0,0,0,0,0c0,0,0,0,0.1,0c0,0,0,0,0,0c3.3-0.9,11.5-4.4,11.5-15.1v-0.8H39.7z M15.9,19.5h4.5
					c0.2,3.6,0.9,8.4,3.1,11.7C20.2,29.7,16.2,26.3,15.9,19.5z M36.6,31.2c2.1-3.3,2.8-8.1,3-11.7h4.5
					C43.8,26.3,39.8,29.6,36.6,31.2z"/>
			</defs>
			<clipPath id="SVGID_4_">
				<use xlink:href="#SVGID_3_"  style="overflow:visible;"/>
			</clipPath>
			<g class="st3">
				<path class="st4" d="M39.7,17.9c0.1-2.1,0-3.6,0-3.6H20.3c0,0-0.1,1.4,0,3.6h-6v0.8c0,10.7,8.2,14.1,11.5,15c0,0,0.1,0,0.1,0v0
					c0,1.6,0.4,4.9,2.9,5.7c-0.4,1.9-1.2,4.1-3.1,5.2c0,0.9,0,0.9,0,0.9h8.7c0,0,0,0,0-0.9c-1.9-1.1-2.7-3.3-3.1-5.2
					c2.4-0.9,2.8-4.2,2.8-5.7c0,0,0,0,0,0c0,0,0,0,0.1,0c0,0,0,0,0,0c3.3-0.9,11.5-4.4,11.5-15.1v-0.8H39.7z M15.9,19.5h4.5
					c0.2,3.6,0.9,8.4,3.1,11.7C20.2,29.7,16.2,26.3,15.9,19.5z M36.6,31.2c2.1-3.3,2.8-8.1,3-11.7h4.5
					C43.8,26.3,39.8,29.6,36.6,31.2z"/>
			</g>
			<g class="st3">
				<g>
					<polygon class="st5" points="45.7,11.2 30,11.2 30,51.7 48.9,51.7 					"/>
				</g>
			</g>
			<g class="st3">
				<path class="st5" d="M19.9,14.2c1.3,6.8-1,13.8,6,19.6c-2,5.3-7.5,2.8-7.5,2.8L9.8,21.8C9.8,21.8,19.2,10.5,19.9,14.2z"/>
			</g>
			<g class="st3">
				<path class="st5" d="M19.7,22.2c0,0,2,8.8,10.3,9.1c7.9,0.3,10.9,1.6,8.1,2.1C35.5,34,26.8,36.9,22,30.7L19.7,22.2z"/>
			</g>
			<g class="st3">
				<path class="st5" d="M24.3,35c0,0,1.4,3.4,7.3,3.2c5.5-0.2,7.6,0.2,5.7,0.6c-1.8,0.4-7.8,2.1-11.3-0.5L24.3,35z"/>
			</g>
		</g>
		<g>
			<defs>
				<path id="SVGID_5_" d="M39.7,17.9c0.1-2.1,0-3.6,0-3.6H20.3c0,0-0.1,1.4,0,3.6h-6v0.8c0,10.7,8.2,14.1,11.5,15c0,0,0.1,0,0.1,0
					v0c0,1.6,0.4,4.9,2.9,5.7c-0.4,1.9-1.2,4.1-3.1,5.2c0,0.9,0,0.9,0,0.9h8.7c0,0,0,0,0-0.9c-1.9-1.1-2.7-3.3-3.1-5.2
					c2.4-0.9,2.8-4.2,2.8-5.7c0,0,0,0,0,0c0,0,0,0,0.1,0c0,0,0,0,0,0c3.3-0.9,11.5-4.4,11.5-15.1v-0.8H39.7z M15.9,19.5h4.5
					c0.2,3.6,0.9,8.4,3.1,11.7C20.2,29.7,16.2,26.3,15.9,19.5z M36.6,31.2c2.1-3.3,2.8-8.1,3-11.7h4.5
					C43.8,26.3,39.8,29.6,36.6,31.2z"/>
			</defs>
			<clipPath id="SVGID_6_">
				<use xlink:href="#SVGID_5_"  style="overflow:visible;"/>
			</clipPath>
		</g>
	</g>
</g>
</svg>
