<svg id="Calque_1" data-name="Calque 1" xmlns="http://www.w3.org/2000/svg" xmlns:xlink="http://www.w3.org/1999/xlink" viewBox="0 0 60 60"><defs><style>.cls-1{fill:none;}.cls-2{fill:#09838f;}.cls-3{fill:#3ebbd1;}.cls-4{fill:#88cede;}.cls-5{clip-path:url(#clip-path);}.cls-6{fill:#fff089;}.cls-7{fill:#fbc83d;}</style><clipPath id="clip-path" transform="translate(0)"><path class="cls-1" d="M39.69,17.9c0.08-2.12,0-3.56,0-3.56H20.31s-0.09,1.44,0,3.56h-6v0.79c0,10.67,8.21,14.09,11.48,15l0.13,0v0c0,1.6.4,4.93,2.89,5.74-0.38,1.94-1.22,4.1-3.1,5.19v0.9H34.4v-0.9c-1.88-1.09-2.74-3.26-3.1-5.2,2.43-.87,2.78-4.17,2.81-5.74v0a0.08,0.08,0,0,1,.08,0s0,0,0,0c3.26-.95,11.5-4.36,11.5-15.05V17.9h-6ZM15.88,19.49h4.49c0.22,3.64.95,8.41,3.05,11.72A12.91,12.91,0,0,1,15.88,19.49ZM36.59,31.17c2.09-3.3,2.8-8.06,3-11.68h4.51A12.91,12.91,0,0,1,36.59,31.17Z"/></clipPath></defs><title>3</title><circle class="cls-2" cx="30" cy="30" r="28.8"/><path class="cls-3" d="M30,60A30,30,0,1,1,60,30,30,30,0,0,1,30,60ZM30,2.4A27.6,27.6,0,1,0,57.6,30,27.63,27.63,0,0,0,30,2.4Z" transform="translate(0)"/><polygon class="cls-4" points="30 21.02 30.85 3.08 30.56 21.04 32.53 3.19 31.13 21.09 34.21 3.4 31.68 21.18 35.88 3.72 32.23 21.3 37.51 4.14 32.77 21.46 39.12 4.66 33.3 21.65 40.7 5.28 33.82 21.88 42.23 6 34.33 22.13 43.71 6.82 34.81 22.42 45.14 7.73 35.28 22.74 46.51 8.72 35.72 23.08 47.81 9.8 36.15 23.46 49.04 10.96 36.54 23.86 50.2 12.19 36.92 24.28 51.28 13.49 37.26 24.72 52.27 14.86 37.58 25.19 53.18 16.29 37.87 25.68 54 17.77 38.12 26.18 54.72 19.3 38.35 26.7 55.34 20.88 38.54 27.23 55.86 22.49 38.7 27.77 56.28 24.13 38.82 28.32 56.6 25.79 38.91 28.88 56.81 27.47 38.96 29.44 56.92 29.15 38.98 30 56.92 30.85 38.96 30.56 56.81 32.53 38.91 31.13 56.6 34.21 38.82 31.68 56.28 35.88 38.7 32.23 55.86 37.51 38.54 32.77 55.34 39.12 38.35 33.3 54.72 40.7 38.12 33.82 54 42.23 37.87 34.33 53.18 43.71 37.58 34.81 52.27 45.14 37.26 35.28 51.28 46.51 36.92 35.72 50.2 47.81 36.54 36.15 49.04 49.04 36.15 36.54 47.81 50.2 35.72 36.92 46.51 51.28 35.28 37.26 45.14 52.27 34.81 37.58 43.71 53.18 34.33 37.87 42.23 54 33.82 38.12 40.7 54.72 33.3 38.35 39.12 55.34 32.77 38.54 37.51 55.86 32.23 38.7 35.88 56.28 31.68 38.82 34.21 56.6 31.13 38.91 32.53 56.81 30.56 38.96 30.85 56.92 30 38.98 29.15 56.92 29.44 38.96 27.47 56.81 28.88 38.91 25.79 56.6 28.32 38.82 24.13 56.28 27.77 38.7 22.49 55.86 27.23 38.54 20.88 55.34 26.7 38.35 19.3 54.72 26.18 38.12 17.77 54 25.68 37.87 16.29 53.18 25.19 37.58 14.86 52.27 24.72 37.26 13.49 51.28 24.28 36.92 12.19 50.2 23.86 36.54 10.96 49.04 23.46 36.15 9.8 47.81 23.08 35.72 8.72 46.51 22.74 35.28 7.73 45.14 22.42 34.81 6.82 43.71 22.13 34.33 6 42.23 21.88 33.82 5.28 40.7 21.65 33.3 4.66 39.12 21.46 32.77 4.14 37.51 21.3 32.23 3.72 35.88 21.18 31.68 3.4 34.21 21.09 31.13 3.19 32.53 21.04 30.56 3.08 30.85 21.02 30 3.08 29.15 21.04 29.44 3.19 27.47 21.09 28.88 3.4 25.79 21.18 28.32 3.72 24.13 21.3 27.77 4.14 22.49 21.46 27.23 4.66 20.88 21.65 26.7 5.28 19.3 21.88 26.18 6 17.77 22.13 25.68 6.82 16.29 22.42 25.19 7.73 14.86 22.74 24.72 8.72 13.49 23.08 24.28 9.8 12.19 23.46 23.86 10.96 10.96 23.86 23.46 12.19 9.8 24.28 23.08 13.49 8.72 24.72 22.74 14.86 7.73 25.19 22.42 16.29 6.82 25.68 22.13 17.77 6 26.18 21.88 19.3 5.28 26.7 21.65 20.88 4.66 27.23 21.46 22.49 4.14 27.77 21.3 24.13 3.72 28.32 21.18 25.79 3.4 28.88 21.09 27.47 3.19 29.44 21.04 29.15 3.08 30 21.02"/><g class="cls-5"><path class="cls-6" d="M39.69,17.9c0.08-2.12,0-3.56,0-3.56H20.31s-0.09,1.44,0,3.56h-6v0.79c0,10.67,8.21,14.09,11.48,15l0.13,0v0c0,1.6.4,4.93,2.89,5.74-0.38,1.94-1.22,4.1-3.1,5.19v0.9H34.4v-0.9c-1.88-1.09-2.74-3.26-3.1-5.2,2.43-.87,2.78-4.17,2.81-5.74v0a0.08,0.08,0,0,1,.08,0s0,0,0,0c3.26-.95,11.5-4.36,11.5-15.05V17.9h-6ZM15.88,19.49h4.49c0.22,3.64.95,8.41,3.05,11.72A12.91,12.91,0,0,1,15.88,19.49ZM36.59,31.17c2.09-3.3,2.8-8.06,3-11.68h4.51A12.91,12.91,0,0,1,36.59,31.17Z" transform="translate(0)"/><polygon class="cls-7" points="45.72 11.17 30 11.17 30 51.68 48.9 51.73 45.72 11.17"/><path class="cls-7" d="M19.85,14.21c1.26,6.79-1,13.81,6,19.57-2,5.32-7.48,2.75-7.48,2.75L9.84,21.78S19.17,10.52,19.85,14.21Z" transform="translate(0)"/><path class="cls-7" d="M19.65,22.24S21.67,31,30,31.37c7.86,0.31,10.9,1.6,8.09,2.13C35.48,34,26.79,36.88,22,30.7Z" transform="translate(0)"/><path class="cls-7" d="M24.27,35s1.44,3.43,7.25,3.18c5.48-.24,7.64.22,5.7,0.61s-7.76,2.14-11.32-.54Z" transform="translate(0)"/></g></svg>