<svg id="Calque_1" data-name="Calque 1" xmlns="http://www.w3.org/2000/svg" xmlns:xlink="http://www.w3.org/1999/xlink" viewBox="0 0 175.18 175.18"><defs><style>.cls-1{fill:none;}.cls-2{fill:#0e8490;stroke:#40bcd1;stroke-miterlimit:10;stroke-width:7px;}.cls-3{fill:#8acfdf;}.cls-4{clip-path:url(#clip-path);}.cls-5{fill:#fff08a;}.cls-6{fill:#fbc83e;}</style><clipPath id="clip-path" transform="translate(-210.05 -333.35)"><path class="cls-1" d="M325.94,385.63c0.23-6.19,0-10.39,0-10.39H269.34s-0.28,4.2,0,10.39H251.75v2.31c0,31.16,24,41.13,33.52,43.9l0.37,0.14v0.14c0.09,4.66,1.15,14.4,8.45,16.76-1.11,5.68-3.55,12-9,15.14v2.63h25.44V464c-5.49-3.19-8-9.51-9-15.19,7.11-2.54,8.13-12.19,8.22-16.76V432a0.22,0.22,0,0,1,.23,0s0-.09.09,0c9.51-2.77,33.56-12.74,33.56-43.95v-2.31H325.94Zm-69.52,4.62h13.11c0.65,10.62,2.77,24.56,8.91,34.21C269.11,419.93,257.25,410.28,256.41,390.25Zm60.48,34.12c6.09-9.65,8.17-23.54,8.82-34.12h13.16C338,410.14,326.22,419.84,316.89,424.36Z"/></clipPath></defs><title>3</title><circle class="cls-2" cx="87.59" cy="87.59" r="84.09"/><polygon id="rays" class="cls-3" points="87.59 61.38 90.06 9 89.24 61.43 94.99 9.31 90.88 61.59 99.89 9.93 92.5 61.84 104.74 10.85 94.11 62.2 109.53 12.08 95.69 62.66 114.22 13.61 97.24 63.22 118.82 15.43 98.75 63.88 123.29 17.53 100.22 64.62 127.62 19.91 101.63 65.46 131.79 22.56 103 66.39 135.78 25.46 104.3 67.39 139.59 28.61 105.53 68.48 143.19 31.99 106.7 69.65 146.57 35.59 107.78 70.88 149.72 39.4 108.79 72.18 152.62 43.39 109.72 73.55 155.27 47.56 110.56 74.96 157.65 51.89 111.31 76.43 159.75 56.36 111.96 77.94 161.57 60.95 112.52 79.49 163.1 65.65 112.98 81.07 164.33 70.44 113.34 82.68 165.25 75.29 113.59 84.31 165.87 80.19 113.75 85.94 166.18 85.12 113.8 87.59 166.18 90.06 113.75 89.24 165.87 94.99 113.59 90.88 165.25 99.89 113.34 92.5 164.33 104.74 112.98 94.11 163.1 109.53 112.52 95.69 161.57 114.22 111.96 97.24 159.75 118.82 111.31 98.75 157.65 123.29 110.56 100.22 155.27 127.62 109.72 101.63 152.62 131.79 108.79 103 149.72 135.78 107.78 104.3 146.57 139.59 106.7 105.53 143.19 143.19 105.53 106.7 139.59 146.57 104.3 107.78 135.78 149.72 103 108.79 131.79 152.62 101.63 109.72 127.62 155.27 100.22 110.56 123.29 157.65 98.75 111.31 118.82 159.75 97.24 111.96 114.22 161.57 95.69 112.52 109.53 163.1 94.11 112.98 104.74 164.33 92.5 113.34 99.89 165.25 90.88 113.59 94.99 165.87 89.24 113.75 90.06 166.18 87.59 113.8 85.12 166.18 85.94 113.75 80.19 165.87 84.31 113.59 75.29 165.25 82.68 113.34 70.44 164.33 81.07 112.98 65.65 163.1 79.49 112.52 60.95 161.57 77.94 111.96 56.36 159.75 76.43 111.31 51.89 157.65 74.96 110.56 47.56 155.27 73.55 109.72 43.39 152.62 72.18 108.79 39.4 149.72 70.88 107.78 35.59 146.57 69.65 106.7 31.99 143.19 68.48 105.53 28.61 139.59 67.39 104.3 25.46 135.78 66.39 103 22.56 131.79 65.46 101.63 19.91 127.62 64.62 100.22 17.53 123.29 63.88 98.75 15.43 118.82 63.22 97.24 13.61 114.22 62.66 95.69 12.08 109.53 62.2 94.11 10.85 104.74 61.84 92.5 9.93 99.89 61.59 90.88 9.31 94.99 61.43 89.24 9 90.06 61.38 87.59 9 85.12 61.43 85.94 9.31 80.19 61.59 84.31 9.93 75.29 61.84 82.68 10.85 70.44 62.2 81.07 12.08 65.65 62.66 79.49 13.61 60.95 63.22 77.94 15.43 56.36 63.88 76.43 17.53 51.89 64.62 74.96 19.91 47.56 65.46 73.55 22.56 43.39 66.39 72.18 25.46 39.4 67.39 70.88 28.61 35.59 68.48 69.65 31.99 31.99 69.65 68.48 35.59 28.61 70.88 67.39 39.4 25.46 72.18 66.39 43.39 22.56 73.55 65.46 47.56 19.91 74.96 64.62 51.89 17.53 76.43 63.88 56.36 15.43 77.94 63.22 60.95 13.61 79.49 62.66 65.65 12.08 81.07 62.2 70.44 10.85 82.68 61.84 75.29 9.93 84.31 61.59 80.19 9.31 85.94 61.43 85.12 9 87.59 61.38"/><g class="cls-4"><path class="cls-5" d="M325.94,385.63c0.23-6.19,0-10.39,0-10.39H269.34s-0.28,4.2,0,10.39H251.75v2.31c0,31.16,24,41.13,33.52,43.9l0.37,0.14v0.14c0.09,4.66,1.15,14.4,8.45,16.76-1.11,5.68-3.55,12-9,15.14v2.63h25.44V464c-5.49-3.19-8-9.51-9-15.19,7.11-2.54,8.13-12.19,8.22-16.76V432a0.22,0.22,0,0,1,.23,0s0-.09.09,0c9.51-2.77,33.56-12.74,33.56-43.95v-2.31H325.94Zm-69.52,4.62h13.11c0.65,10.62,2.77,24.56,8.91,34.21C269.11,419.93,257.25,410.28,256.41,390.25Zm60.48,34.12c6.09-9.65,8.17-23.54,8.82-34.12h13.16C338,410.14,326.22,419.84,316.89,424.36Z" transform="translate(-210.05 -333.35)"/><polygon class="cls-6" points="133.48 32.61 87.59 32.61 87.59 150.9 142.77 151.02 133.48 32.61"/><path class="cls-6" d="M268,374.83c3.68,19.84-2.89,40.32,17.62,57.14-5.69,15.54-21.85,8-21.85,8l-25-43.09S266,364.06,268,374.83Z" transform="translate(-210.05 -333.35)"/><path class="cls-6" d="M267.42,398.28s5.88,25.72,30.22,26.67c22.94,0.89,31.82,4.67,23.61,6.22-7.61,1.44-33,9.87-47.05-8.18Z" transform="translate(-210.05 -333.35)"/><path class="cls-6" d="M280.92,435.48s4.2,10,21.18,9.28c16-.69,22.32.66,16.65,1.79-5.26,1-22.66,6.25-33-1.57Z" transform="translate(-210.05 -333.35)"/></g></svg>